{
  "accessors": [
    {
      "bufferView": 3,
      "componentType": 5126,
      "count": 36742,
      "max": [
        538.5377197265625,
        828.5042114257813,
        309.34783935546875
      ],
      "min": [
        -538.5377197265625,
        -160.03871154785156,
        -204.99252319335938
      ],
      "type": "VEC3"
    },
    {
      "bufferView": 3,
      "byteOffset": 440904,
      "componentType": 5126,
      "count": 36742,
      "max": [
        0.9999997615814209,
        1.0,
        0.9999926090240479
      ],
      "min": [
        -0.999999463558197,
        -1.0,
        -0.9999982714653015
      ],
      "type": "VEC3"
    },
    {
      "bufferView": 2,
      "componentType": 5126,
      "count": 36742,
      "max": [
        1.0,
        1.0
      ],
      "min": [
        0.0,
        0.0
      ],
      "type": "VEC2"
    },
    {
      "bufferView": 1,
      "componentType": 5125,
      "count": 190104,
      "type": "SCALAR"
    },
    {
      "bufferView": 3,
      "byteOffset": 881808,
      "componentType": 5126,
      "count": 61286,
      "max": [
        305.1441650390625,
        730.0928344726563,
        76.61387634277344
      ],
      "min": [
        -291.86102294921875,
        -78.38151550292969,
        -252.6871337890625
      ],
      "type": "VEC3"
    },
    {
      "bufferView": 3,
      "byteOffset": 1617240,
      "componentType": 5126,
      "count": 61286,
      "max": [
        0.9999848008155823,
        0.9999995827674866,
        0.9999514222145081
      ],
      "min": [
        -0.9993774890899658,
        -0.9999990463256836,
        -0.9999958276748657
      ],
      "type": "VEC3"
    },
    {
      "bufferView": 2,
      "byteOffset": 293936,
      "componentType": 5126,
      "count": 61286,
      "max": [
        1.0,
        1.0
      ],
      "min": [
        0.0,
        0.0
      ],
      "type": "VEC2"
    },
    {
      "bufferView": 1,
      "byteOffset": 760416,
      "componentType": 5125,
      "count": 333960,
      "type": "SCALAR"
    },
    {
      "bufferView": 3,
      "byteOffset": 2352672,
      "componentType": 5126,
      "count": 13238,
      "max": [
        280.4078063964844,
        600.66943359375,
        79.14976501464844
      ],
      "min": [
        -259.1101989746094,
        -178.7628631591797,
        -474.33050537109375
      ],
      "type": "VEC3"
    },
    {
      "bufferView": 3,
      "byteOffset": 2511528,
      "componentType": 5126,
      "count": 13238,
      "max": [
        0.9998987317085266,
        0.9999048113822937,
        0.9989433884620667
      ],
      "min": [
        -0.9987200498580933,
        -0.9999638199806213,
        -0.9988541603088379
      ],
      "type": "VEC3"
    },
    {
      "bufferView": 2,
      "byteOffset": 784224,
      "componentType": 5126,
      "count": 13238,
      "max": [
        1.0,
        1.0
      ],
      "min": [
        0.0,
        0.0
      ],
      "type": "VEC2"
    },
    {
      "bufferView": 1,
      "byteOffset": 2096256,
      "componentType": 5125,
      "count": 74304,
      "type": "SCALAR"
    },
    {
      "bufferView": 5,
      "componentType": 5126,
      "count": 14,
      "max": [
        1.0,
        3.723812978893154e-14,
        0.24940532445907593,
        0.0,
        1.431146867680866e-17,
        1.0,
        8.673617379884035e-17,
        0.0,
        1.0,
        1.4453726843860482e-13,
        1.0,
        0.0,
        395.3315734863281,
        74.1004409790039,
        336.8565673828125,
        1.0
      ],
      "min": [
        -5.6365097407251596e-05,
        -1.0,
        -0.17377305030822754,
        0.0,
        -0.024619588628411293,
        1.3876855291528045e-06,
        -0.9999973773956299,
        0.0,
        -0.24940532445907593,
        -5.6348013458773494e-05,
        -0.024619588628411293,
        0.0,
        -428.212158203125,
        -395.5623474121094,
        -102.57333374023438,
        1.0
      ],
      "type": "MAT4"
    },
    {
      "bufferView": 0,
      "componentType": 5123,
      "count": 36742,
      "type": "VEC4"
    },
    {
      "bufferView": 4,
      "componentType": 5126,
      "count": 36742,
      "max": [
        1.0,
        0.49987030029296875,
        0.2867322862148285,
        0.011276417411863804
      ],
      "min": [
        0.365682452917099,
        0.0,
        0.0,
        0.0
      ],
      "type": "VEC4"
    },
    {
      "bufferView": 0,
      "byteOffset": 293936,
      "componentType": 5123,
      "count": 61286,
      "type": "VEC4"
    },
    {
      "bufferView": 4,
      "byteOffset": 587872,
      "componentType": 5126,
      "count": 61286,
      "max": [
        1.0,
        0.49944305419921875,
        0.0,
        0.0
      ],
      "min": [
        0.5005569458007813,
        0.0,
        0.0,
        0.0
      ],
      "type": "VEC4"
    },
    {
      "bufferView": 0,
      "byteOffset": 784224,
      "componentType": 5123,
      "count": 13238,
      "type": "VEC4"
    },
    {
      "bufferView": 4,
      "byteOffset": 1568448,
      "componentType": 5126,
      "count": 13238,
      "max": [
        1.0,
        0.0,
        0.0,
        0.0
      ],
      "min": [
        1.0,
        0.0,
        0.0,
        0.0
      ],
      "type": "VEC4"
    },
    {
      "bufferView": 6,
      "componentType": 5126,
      "count": 68,
      "max": [
        2.2333333492279053
      ],
      "min": [
        0.0
      ],
      "type": "SCALAR"
    },
    {
      "bufferView": 7,
      "componentType": 5126,
      "count": 68,
      "max": [
        0.5649949908256531,
        0.5520721673965454,
        0.5512762665748596,
        0.5386185646057129
      ],
      "min": [
        -0.5061032176017761,
        -0.5043400526046753,
        -0.4938206374645233,
        -0.492044597864151
      ],
      "type": "VEC4"
    },
    {
      "bufferView": 6,
      "byteOffset": 272,
      "componentType": 5126,
      "count": 46,
      "max": [
        1.5
      ],
      "min": [
        0.0
      ],
      "type": "SCALAR"
    },
    {
      "bufferView": 7,
      "byteOffset": 1088,
      "componentType": 5126,
      "count": 46,
      "max": [
        0.03266290947794914,
        -0.01229622308164835,
        0.00040213571628555655,
        0.999923586845398
      ],
      "min": [
        -0.04857826977968216,
        -0.012310751713812351,
        -0.000598080747295171,
        0.9987435340881348
      ],
      "type": "VEC4"
    },
    {
      "bufferView": 6,
      "byteOffset": 456,
      "componentType": 5126,
      "count": 22,
      "max": [
        1.1666666269302368
      ],
      "min": [
        0.0
      ],
      "type": "SCALAR"
    },
    {
      "bufferView": 7,
      "byteOffset": 1824,
      "componentType": 5126,
      "count": 22,
      "max": [
        -0.5063967108726501,
        0.45500507950782776,
        -0.42387500405311584,
        0.5748468637466431
      ],
      "min": [
        -0.5672425627708435,
        0.42596563696861267,
        -0.4813176989555359,
        0.5423238277435303
      ],
      "type": "VEC4"
    },
    {
      "bufferView": 6,
      "byteOffset": 544,
      "componentType": 5126,
      "count": 26,
      "max": [
        0.8333333134651184
      ],
      "min": [
        0.0
      ],
      "type": "SCALAR"
    },
    {
      "bufferView": 7,
      "byteOffset": 2176,
      "componentType": 5126,
      "count": 26,
      "max": [
        0.43138232827186584,
        0.5815350413322449,
        0.5990105271339417,
        0.43409809470176697
      ],
      "min": [
        -0.4497898817062378,
        -0.557523250579834,
        -0.558762788772583,
        -0.46519970893859863
      ],
      "type": "VEC4"
    }
  ],
  "animations": [
    {
      "channels": [
        {
          "sampler": 0,
          "target": {
            "node": 12,
            "path": "rotation"
          }
        },
        {
          "sampler": 1,
          "target": {
            "node": 11,
            "path": "rotation"
          }
        },
        {
          "sampler": 2,
          "target": {
            "node": 19,
            "path": "rotation"
          }
        },
        {
          "sampler": 3,
          "target": {
            "node": 21,
            "path": "rotation"
          }
        }
      ],
      "name": "CINEMA_4D_Main",
      "samplers": [
        {
          "input": 19,
          "interpolation": "LINEAR",
          "output": 20
        },
        {
          "input": 21,
          "interpolation": "LINEAR",
          "output": 22
        },
        {
          "input": 23,
          "interpolation": "LINEAR",
          "output": 24
        },
        {
          "input": 25,
          "interpolation": "LINEAR",
          "output": 26
        }
      ]
    }
  ],
  "asset": {
    "extras": {
      "author": "KiwiRenders (https://sketchfab.com/KiwiRenders)",
      "license": "CC-BY-4.0 (http://creativecommons.org/licenses/by/4.0/)",
      "source": "https://sketchfab.com/3d-models/cute-penguin-fully-rigged-72491359f60045a3aebda0eb3e1daf59",
      "title": "Cute Penguin fully rigged"
    },
    "generator": "Sketchfab-15.49.0",
    "version": "2.0"
  },
  "bufferViews": [
    {
      "buffer": 0,
      "byteLength": 890128,
      "byteStride": 8,
      "name": "shortBufferViews",
      "target": 34962
    },
    {
      "buffer": 0,
      "byteLength": 2393472,
      "byteOffset": 890128,
      "name": "floatBufferViews",
      "target": 34963
    },
    {
      "buffer": 0,
      "byteLength": 890128,
      "byteOffset": 3283600,
      "byteStride": 8,
      "name": "floatBufferViews",
      "target": 34962
    },
    {
      "buffer": 0,
      "byteLength": 2670384,
      "byteOffset": 4173728,
      "byteStride": 12,
      "name": "floatBufferViews",
      "target": 34962
    },
    {
      "buffer": 0,
      "byteLength": 1780256,
      "byteOffset": 6844112,
      "byteStride": 16,
      "name": "floatBufferViews",
      "target": 34962
    },
    {
      "buffer": 0,
      "byteLength": 896,
      "byteOffset": 8624368,
      "name": "floatBufferViews"
    },
    {
      "buffer": 0,
      "byteLength": 648,
      "byteOffset": 8625264,
      "name": "floatBufferViews"
    },
    {
      "buffer": 0,
      "byteLength": 2592,
      "byteOffset": 8625912,
      "byteStride": 16,
      "name": "floatBufferViews"
    }
  ],
  "buffers": [
    {
      "byteLength": 8628504,
      "uri": "scene.bin"
    }
  ],
  "materials": [
    {
      "doubleSided": true,
      "name": "Mat.2",
      "pbrMetallicRoughness": {
        "baseColorFactor": [
          0.07680000000000001,
          0.0920533,
          0.16,
          1.0
        ],
        "metallicFactor": 0.0,
        "roughnessFactor": 0.9524317153998911
      }
    },
    {
      "doubleSided": true,
      "name": "Mat.1",
      "pbrMetallicRoughness": {
        "metallicFactor": 0.0,
        "roughnessFactor": 0.9524317153998911
      }
    },
    {
      "doubleSided": true,
      "name": "Mat.3",
      "pbrMetallicRoughness": {
        "baseColorFactor": [
          0.8,
          0.606667,
          0.336,
          1.0
        ],
        "metallicFactor": 0.0,
        "roughnessFactor": 0.9524317153998911
      }
    }
  ],
  "meshes": [
    {
      "name": "feet_Mat.2_0",
      "primitives": [
        {
          "attributes": {
            "JOINTS_0": 13,
            "NORMAL": 1,
            "POSITION": 0,
            "TEXCOORD_0": 2,
            "WEIGHTS_0": 14
          },
          "indices": 3,
          "material": 0,
          "mode": 4
        }
      ]
    },
    {
      "name": "feet_Mat.1_0",
      "primitives": [
        {
          "attributes": {
            "JOINTS_0": 15,
            "NORMAL": 5,
            "POSITION": 4,
            "TEXCOORD_0": 6,
            "WEIGHTS_0": 16
          },
          "indices": 7,
          "material": 1,
          "mode": 4
        }
      ]
    },
    {
      "name": "feet_Mat.3_0",
      "primitives": [
        {
          "attributes": {
            "JOINTS_0": 17,
            "NORMAL": 9,
            "POSITION": 8,
            "TEXCOORD_0": 10,
            "WEIGHTS_0": 18
          },
          "indices": 11,
          "material": 2,
          "mode": 4
        }
      ]
    }
  ],
  "nodes": [
    {
      "children": [
        1
      ],
      "matrix": [
        1.0,
        0.0,
        0.0,
        0.0,
        0.0,
        2.220446049250313e-16,
        -1.0,
        0.0,
        0.0,
        1.0,
        2.220446049250313e-16,
        0.0,
        0.0,
        0.0,
        0.0,
        1.0
      ],
      "name": "Sketchfab_model"
    },
    {
      "children": [
        2
      ],
      "matrix": [
        0.009999999776482582,
        0.0,
        0.0,
        0.0,
        0.0,
        0.0,
        0.009999999776482582,
        0.0,
        0.0,
        -0.009999999776482582,
        0.0,
        0.0,
        0.0,
        0.0,
        0.0,
        1.0
      ],
      "name": "e6ddf914e0b54ce4807d46da029d70a6.fbx"
    },
    {
      "children": [
        3
      ],
      "name": "Object_2"
    },
    {
      "children": [
        4,
        6
      ],
      "name": "RootNode"
    },
    {
      "children": [
        5
      ],
      "name": "CINEMA_4D_Editor",
      "rotation": [
        0.05823219195008278,
        -0.703932523727417,
        -0.058359045535326004,
        0.7054659724235535
      ],
      "translation": [
        -84.08914947509766,
        863.3682250976563,
        -2838.7919921875
      ]
    },
    {
      "name": "Object_5"
    },
    {
      "children": [
        7,
        27
      ],
      "name": "Null",
      "translation": [
        0.0,
        242.73045349121094,
        0.0
      ]
    },
    {
      "children": [
        8
      ],
      "name": "Root",
      "translation": [
        -39.826332092285156,
        -156.0273895263672,
        73.95099639892578
      ]
    },
    {
      "children": [
        9,
        24,
        25,
        26,
        23
      ],
      "name": "Object_8"
    },
    {
      "children": [
        10
      ],
      "name": "_rootJoint"
    },
    {
      "children": [
        11,
        19,
        21
      ],
      "name": "lower_body_00",
      "rotation": [
        0.49942731857299805,
        -0.5005720257759094,
        0.49942731857299805,
        0.5005720257759094
      ]
    },
    {
      "children": [
        12,
        15,
        16
      ],
      "name": "upper_body_01",
      "rotation": [
        0.0011442846152931452,
        -0.012310751713812351,
        1.408807929692557e-05,
        0.999923586845398
      ],
      "translation": [
        0.0,
        -2.2026824808563106e-13,
        -439.5531005859375
      ]
    },
    {
      "children": [
        13
      ],
      "name": "arm_right_02",
      "rotation": [
        -0.5061032176017761,
        0.5061317086219788,
        -0.4938206672668457,
        0.4937928318977356
      ],
      "translation": [
        31.688953399658203,
        295.6502380371094,
        -28.459138870239258
      ]
    },
    {
      "children": [
        14
      ],
      "name": "arm_bottom_half_03",
      "rotation": [
        -1.3322676295501878e-15,
        0.0,
        -4.13929911427723e-32,
        1.0
      ],
      "translation": [
        -109.26305389404297,
        27.07504653930664,
        -5.684341886080802e-14
      ]
    },
    {
      "name": "arm_top_half_04",
      "rotation": [
        3.8234094474658755e-17,
        -0.0,
        -7.061800679664124e-33,
        1.0
      ],
      "translation": [
        -123.21112823486328,
        21.634796142578125,
        0.0
      ]
    },
    {
      "name": "top_05",
      "rotation": [
        -1.110012325179527e-16,
        2.185751579730777e-16,
        2.2327788489623357e-18,
        1.0
      ],
      "translation": [
        8.526512829121202e-14,
        7.460698725481052e-13,
        -490.625
      ]
    },
    {
      "children": [
        17
      ],
      "name": "arm_left_06",
      "rotation": [
        -0.5061032176017761,
        0.5061317086219788,
        -0.4938206672668457,
        0.4937928318977356
      ],
      "translation": [
        31.560829162597656,
        -292.4009094238281,
        -32.315799713134766
      ]
    },
    {
      "children": [
        18
      ],
      "name": "arm_bottom_half_2_07",
      "rotation": [
        -1.3322676295501878e-15,
        6.162975822039155e-33,
        -4.958232233032532e-32,
        1.0
      ],
      "translation": [
        126.22952270507813,
        27.07504653930664,
        -7.105427357601002e-14
      ]
    },
    {
      "name": "arm_top_half_2_08",
      "rotation": [
        3.8234094474658755e-17,
        0.0,
        9.39258630683791e-33,
        1.0
      ],
      "translation": [
        102.6617660522461,
        27.51936912536621,
        -2.842170943040401e-14
      ]
    },
    {
      "children": [
        20
      ],
      "name": "foot_left_09",
      "rotation": [
        -0.5410836338996887,
        0.45500513911247253,
        -0.45396465063095093,
        0.5423238277435303
      ],
      "translation": [
        1.4210854715202004e-14,
        -166.2169189453125,
        -31.22508430480957
      ]
    },
    {
      "name": "foot_010",
      "rotation": [
        6.310887241768095e-30,
        -2.7755575615628914e-17,
        0.0,
        1.0
      ],
      "translation": [
        -1.3782366514205933,
        -70.89524841308594,
        -221.26719665527344
      ]
    },
    {
      "children": [
        22
      ],
      "name": "foot_right_011",
      "rotation": [
        -0.4326881766319275,
        0.5595234036445618,
        -0.5582438707351685,
        0.4336799383163452
      ],
      "translation": [
        -1.4210854715202004e-14,
        158.090087890625,
        -28.13093376159668
      ]
    },
    {
      "name": "foot_2_012",
      "translation": [
        1.7701414823532104,
        -70.89524841308594,
        -220.4563446044922
      ]
    },
    {
      "matrix": [
        1.0,
        0.0,
        -8.436287856981393e-34,
        0.0,
        0.0,
        1.0,
        0.0,
        0.0,
        8.436287856981393e-34,
        0.0,
        1.0,
        0.0,
        88.22982214923223,
        209.4615309771381,
        -147.90200042502147,
        1.0
      ],
      "name": "Object_23"
    },
    {
      "mesh": 0,
      "name": "Object_24",
      "skin": 0
    },
    {
      "mesh": 1,
      "name": "Object_25",
      "skin": 0
    },
    {
      "mesh": 2,
      "name": "Object_26",
      "skin": 0
    },
    {
      "name": "feet",
      "translation": [
        39.826332092285156,
        156.0273895263672,
        -73.95099639892578
      ]
    }
  ],
  "scene": 0,
  "scenes": [
    {
      "name": "Sketchfab_Scene",
      "nodes": [
        0
      ]
    }
  ],
  "skins": [
    {
      "inverseBindMatrices": 12,
      "joints": [
        9,
        10,
        11,
        12,
        13,
        14,
        15,
        16,
        17,
        18,
        19,
        20,
        21,
        22
      ],
      "skeleton": 9
    }
  ]
}
